<svg xmlns="http://www.w3.org/2000/svg" fill="none" viewBox="0 0 23 24"><path fill="currentColor" fill-rule="evenodd" d="M15.956 18.293c3.007-.36 5.625-2.212 5.954-3.905.519-2.667.476-6.508.476-6.508 0-5.207-3.411-6.733-3.411-6.733C17.255.357 14.302.025 11.233 0h-.075c-3.068.025-6.02.357-7.74 1.147 0 0-3.41 1.526-3.41 6.733 0 .315-.003.647-.004.993-.005.96-.01 2.024.018 3.136.123 5.091.933 10.11 5.64 11.355 2.171.575 4.035.695 5.535.613 2.722-.151 4.25-.972 4.25-.972l-.09-1.974s-1.945.613-4.13.538c-2.163-.074-4.448-.233-4.798-2.89a5.448 5.448 0 0 1-.048-.745s2.124.519 4.816.642c1.647.076 3.19-.096 4.759-.283Zm2.406-3.705V8.283c0-1.288-.328-2.312-.986-3.07-.68-.757-1.57-1.145-2.675-1.145-1.278 0-2.246.491-2.885 1.474l-.623 1.043-.622-1.043c-.64-.983-1.607-1.474-2.886-1.474-1.104 0-1.994.388-2.674 1.146-.658.757-.987 1.781-.987 3.07v6.303h2.498V8.47c0-1.29.543-1.945 1.628-1.945 1.2 0 1.802.777 1.802 2.313v3.349h2.483v-3.35c0-1.535.601-2.312 1.802-2.312 1.085 0 1.628.655 1.628 1.945v6.119h2.497Z" clip-rule="evenodd"/></svg>
