<svg viewBox="0 0 64 64" fill="none" xmlns="http://www.w3.org/2000/svg" width="64" height="64"><path fill-rule="evenodd" clip-rule="evenodd" d="M60 4H4v56h56V4ZM0 0v64h64V0H0Z" fill="currentColor"/><path d="M23.333 40.512V16h4L42 40.266V16h4v32h-4L27.333 23.734v16.778a4.315 4.315 0 0 1-2 .488 4.315 4.315 0 0 1-2-.488Z" fill="currentColor"/><path d="M36.667 25.642V16h-4v3.024l4 6.618ZM32.523 38.12l2.587 4.28a11.328 11.328 0 0 1-9.777 5.6C19.074 48 14 42.926 14 36.667h4a7.333 7.333 0 0 0 14.523 1.453Z" fill="currentColor"/></svg>
