<svg width="126" height="16" viewBox="0 0 126 16" fill="none" xmlns="http://www.w3.org/2000/svg">
<path d="M5.13978 0.129032C5.78495 0.129032 6.3871 0.222222 6.94624 0.408602C7.51972 0.580644 8.01434 0.83871 8.43011 1.1828C8.86021 1.51254 9.19714 1.92832 9.44086 2.43011C9.68458 2.91757 9.80645 3.48387 9.80645 4.12903C9.80645 4.94624 9.6129 5.66308 9.22581 6.27957C8.85305 6.89606 8.27957 7.31899 7.50538 7.54839V7.5914C7.8638 7.66308 8.20789 7.81362 8.53763 8.04301C8.88172 8.25806 9.18279 8.53047 9.44086 8.86021C9.69892 9.17563 9.89964 9.54122 10.043 9.95699C10.2007 10.3728 10.2796 10.8172 10.2796 11.2903C10.2796 12.0502 10.1434 12.7168 9.87097 13.2903C9.59856 13.8495 9.23297 14.3226 8.77419 14.7097C8.31542 15.0968 7.7706 15.3907 7.13978 15.5914C6.50896 15.7778 5.8423 15.871 5.13978 15.871C4.42294 15.871 3.7491 15.7778 3.11828 15.5914C2.50179 15.3907 1.96415 15.0968 1.50538 14.7097C1.0466 14.3226 0.681008 13.8495 0.408602 13.2903C0.136196 12.7168 0 12.0502 0 11.2903C0 10.8172 0.0716842 10.3728 0.215054 9.95699C0.372755 9.54122 0.580645 9.17563 0.83871 8.86021C1.09677 8.53047 1.39069 8.25806 1.72043 8.04301C2.06452 7.81362 2.41577 7.66308 2.77419 7.5914V7.54839C2 7.31899 1.41935 6.89606 1.03226 6.27957C0.659503 5.66308 0.473118 4.94624 0.473118 4.12903C0.473118 3.48387 0.594987 2.91757 0.83871 2.43011C1.08243 1.92832 1.41219 1.51254 1.82796 1.1828C2.25806 0.83871 2.75269 0.580644 3.31183 0.408602C3.88531 0.222222 4.49462 0.129032 5.13978 0.129032ZM5.13978 2.32258C4.48028 2.32258 3.96415 2.52329 3.5914 2.92473C3.23297 3.32617 3.05376 3.81362 3.05376 4.3871C3.05376 4.98925 3.24015 5.49821 3.6129 5.91398C3.98566 6.31542 4.49462 6.51613 5.13978 6.51613C5.42652 6.51613 5.69176 6.46595 5.93548 6.36559C6.19355 6.2509 6.41577 6.10036 6.60215 5.91398C6.80286 5.71327 6.9534 5.48387 7.05376 5.22581C7.16845 4.96774 7.22581 4.68817 7.22581 4.3871C7.22581 3.81362 7.02509 3.32617 6.62366 2.92473C6.23656 2.52329 5.74194 2.32258 5.13978 2.32258ZM5.13978 8.58064C4.7957 8.58064 4.46595 8.638 4.15054 8.75269C3.83512 8.86738 3.56273 9.03226 3.33333 9.24731C3.10394 9.46237 2.91757 9.72043 2.77419 10.0215C2.64516 10.3082 2.58065 10.6237 2.58065 10.9677C2.58065 11.6989 2.8172 12.2939 3.29032 12.7527C3.77778 13.1972 4.39426 13.4194 5.13978 13.4194C5.88531 13.4194 6.49462 13.1972 6.96774 12.7527C7.4552 12.2939 7.69892 11.6989 7.69892 10.9677C7.69892 10.6237 7.62724 10.3082 7.48387 10.0215C7.35484 9.72043 7.17563 9.46237 6.94624 9.24731C6.71684 9.03226 6.44445 8.86738 6.12903 8.75269C5.81362 8.638 5.48387 8.58064 5.13978 8.58064ZM18.4688 2.83871H13.8022V0.387097H25.8452V2.83871H21.1785V15.6129H18.4688V2.83871ZM29.8499 0.387097H32.5595V6.45161H39.6778V0.387097H42.3875V15.6129H39.6778V8.90322H32.5595V15.6129H29.8499V0.387097ZM56.4543 0.387097H59.164V13.1613H65.6371V15.6129H56.4543V0.387097ZM69.6921 0.387097H72.4017V15.6129H69.6921V0.387097ZM91.4193 14.4946C89.5413 15.4983 87.4409 16 85.1183 16C83.9426 16 82.8602 15.8136 81.871 15.4409C80.8961 15.0538 80.0501 14.5161 79.3333 13.828C78.6308 13.1254 78.0789 12.2867 77.6774 11.3118C77.2759 10.3369 77.0753 9.25448 77.0753 8.06452C77.0753 6.84587 77.2759 5.74194 77.6774 4.75269C78.0789 3.7491 78.6308 2.89606 79.3333 2.19355C80.0501 1.49103 80.8961 0.9534 81.871 0.580644C82.8602 0.193548 83.9426 0 85.1183 0C86.2796 0 87.3692 0.143368 88.3871 0.430107C89.405 0.702508 90.3155 1.19714 91.1183 1.91398L89.1183 3.93548C88.6308 3.46237 88.0359 3.09677 87.3333 2.83871C86.6451 2.58065 85.914 2.45161 85.1398 2.45161C84.3512 2.45161 83.6344 2.59499 82.9892 2.88172C82.3585 3.15413 81.8136 3.54122 81.3548 4.04301C80.8961 4.53047 80.5376 5.10394 80.2796 5.76344C80.0359 6.42294 79.914 7.13262 79.914 7.89247C79.914 8.70968 80.0359 9.46237 80.2796 10.1505C80.5376 10.8387 80.8961 11.4337 81.3548 11.9355C81.8136 12.4373 82.3585 12.8315 82.9892 13.1183C83.6344 13.405 84.3512 13.5484 85.1398 13.5484C85.8279 13.5484 86.4731 13.4839 87.0753 13.3548C87.6918 13.2258 88.2366 13.0251 88.7097 12.7527V9.16129H85.5914V6.70968H91.4193V14.4946ZM96.781 0.387097H99.4907V6.45161H106.609V0.387097H109.319V15.6129H106.609V8.90322H99.4907V15.6129H96.781V0.387097ZM117.99 2.83871H113.323V0.387097H125.366V2.83871H120.7V15.6129H117.99V2.83871Z" fill="black"/>
</svg>
