<svg width="52" height="32" viewBox="0 0 52 32" fill="none" xmlns="http://www.w3.org/2000/svg"><path d="M13.168 16.303c2.41-1.507 4.017-4.167 4.017-7.192 0-4.69-3.855-8.504-8.593-8.504C3.854.607 0 4.422 0 9.11c0 3.025 1.606 5.685 4.017 7.192C1.606 17.811 0 20.471 0 23.496 0 28.186 3.855 32 8.592 32c4.738 0 8.593-3.815 8.593-8.504 0-3.025-1.606-5.685-4.017-7.192ZM8.592 3.413c3.175 0 5.756 2.557 5.756 5.698 0 3.141-2.581 5.697-5.756 5.697-3.173 0-5.755-2.556-5.755-5.697s2.582-5.697 5.755-5.697Zm0 25.78c-3.173 0-5.755-2.556-5.755-5.697S5.419 17.8 8.592 17.8c3.174 0 5.756 2.556 5.756 5.697s-2.581 5.697-5.756 5.697ZM51.29 14.347H39.049l8.657-8.568-2.253-2.23-8.658 8.568V0h-3.186v12.117L24.95 3.549l-2.254 2.23 8.657 8.568H19.11V17.5h12.244l-8.658 8.567 2.254 2.23 8.657-8.567v12.116h3.186V19.731l8.658 8.568 2.253-2.23-8.657-8.568H51.29v-3.154Z" fill="#000"/></svg>