<svg width="67" height="16" viewBox="0 0 67 16" fill="none" xmlns="http://www.w3.org/2000/svg"><path d="M6.627.082C6.604.13 5.105 3.586 3.297 7.76L0 15.351l1.417.012c.78.004 1.424 0 1.431-.008.012-.007.287-.659.61-1.443l.596-1.424h4.924l.565 1.44.569 1.442h1.669c.915 0 1.665-.01 1.665-.03 0-.015-1.492-3.473-3.319-7.685C6.65-.36 6.737-.167 6.627.082Zm.678 8.16c.377.961.678 1.752.67 1.763-.01.008-.662.012-1.453.008l-1.436-.011.742-1.779c.407-.98.754-1.767.765-1.751.015.015.335.81.712 1.77ZM12.177.647c.101.249 6.668 15.277 6.69 15.319.027.045.034.045.05.003.01-.03 1.518-3.477 3.345-7.663L25.604.647c.015-.038-.328-.045-1.707-.038l-1.722.012-1.552 4.084a418.095 418.095 0 0 1-1.586 4.14c-.022.034-.557-1.24-1.714-4.088L15.646.621 13.902.609c-1.39-.007-1.74 0-1.725.038Zm16 7.339v7.384l5.173-.007 5.169-.011.011-1.406.008-1.401h-7.46V9.342h6.329V6.554h-6.329V3.39h7.158V.602H28.177v7.384Zm13.374 0v7.384h9.834v-2.825h-6.932V.602h-2.901v7.384ZM59.394.03c-.011.022-6.566 15.107-6.642 15.291-.015.038.283.05 1.41.05h1.431l.599-1.444.599-1.439h4.928l.565 1.44.565 1.442h1.673c.92 0 1.669-.01 1.669-.026 0-.015-1.496-3.474-3.323-7.686C59.564.044 59.488-.122 59.394.03Zm.652 8.209c.373.956.682 1.751.682 1.763 0 .011-.656.018-1.454.018-.799 0-1.447-.014-1.44-.033.272-.705 1.481-3.538 1.5-3.52.015.016.335.815.712 1.772Z" fill="#5D1CA8"/></svg>