<svg width="82" height="16" viewBox="0 0 82 16" fill="none" xmlns="http://www.w3.org/2000/svg">
<path fill-rule="evenodd" clip-rule="evenodd" d="M74.6309 15.9768V13.6945C76.0303 13.6672 77.3924 13.2383 78.555 12.4589V8.68758C77.2588 8.47515 75.947 8.3721 74.6335 8.37953V6.09725C75.9465 6.09021 77.258 6.1893 78.555 6.39355V4.88267C78.555 3.23133 77.2478 2.36565 74.6335 2.28563V0.00755347C79.1258 0.0993257 81.372 1.80215 81.372 5.11602V15.9969H79.94L78.8169 14.8688C77.5216 15.5454 76.0914 15.924 74.6309 15.9768ZM74.6309 0.00755347V2.28983C74.5067 2.28563 74.3791 2.28563 74.2398 2.28563C72.5261 2.29537 70.8227 2.55119 69.1817 3.04527V0.762156C70.8231 0.269907 72.5262 0.0135694 74.2398 0.000838919C74.3733 0.000838919 74.5025 0.00755347 74.6309 0.00755347ZM74.6309 6.09725V8.38288H74.3791C71.936 8.38288 70.7133 9.24493 70.711 10.969C70.711 12.8033 71.7768 13.7194 73.9082 13.7171C74.16 13.7171 74.3968 13.7113 74.6326 13.697V15.9793C74.3926 15.9927 74.1567 15.9994 73.9082 15.9994C69.8954 15.9994 67.8893 14.3388 67.8899 11.0177C67.8899 7.73796 70.053 6.09865 74.3791 6.09977L74.6309 6.09725ZM41.4628 15.9826V13.7163C44.6614 13.7163 46.2619 11.7899 46.2641 7.93717C46.2641 4.17116 44.6637 2.28815 41.4628 2.28815V0.000838919C46.5349 0.000838919 49.0743 2.66727 49.0811 8.00013C49.0811 13.3196 46.5416 15.9804 41.4628 15.9826ZM50.8681 0.00167784H53.9184L58.5056 12.5378L63.0517 0.00167784H66.1012L59.5951 15.9986H56.983L50.8681 0.00167784ZM7.66606 0.00167784C12.5608 0.00167784 14.5353 2.93671 13.5896 8.80677H6.92488V6.45651H11.0152C11.1556 3.6541 9.88678 2.25234 7.2086 2.25122C7.11459 2.25122 7.01889 2.25122 6.92572 2.25541V0.0201437C7.16578 0.00755296 7.41424 0.000838919 7.66774 0.000838919L7.66606 0.00167784ZM6.92488 13.5459C7.61301 13.6633 8.31019 13.7194 9.00823 13.7138C10.4334 13.7111 11.8543 13.5575 13.2471 13.2555V15.5369C11.5497 15.8701 9.82203 16.0243 8.09246 15.9969C7.6862 15.9969 7.29589 15.981 6.92321 15.9524V13.5442L6.92488 13.5459ZM41.4628 0.00251676V2.28815C38.2648 2.28815 36.6658 4.17116 36.6658 7.93717C36.6658 11.7855 38.2648 13.7118 41.4628 13.7163V15.9826C36.6101 15.9826 34.0718 13.3215 33.848 7.99929C33.848 2.66923 36.3871 0.00279793 41.4654 0L41.4628 0.00251676ZM17.125 15.9986V0.000838919H19.0338L19.5315 2.03885C21.2219 0.766796 23.2672 0.0543019 25.382 0.000838919C29.0753 0.000838919 30.92 1.98541 30.916 5.95456V15.9969H28.0949V5.91427C28.0949 3.53771 26.9116 2.34802 24.5451 2.34523C22.8061 2.4009 21.1561 3.12767 19.9411 4.37317V15.9969L17.125 15.9986ZM6.92488 8.80257H2.81192C2.81192 11.4673 4.18095 13.047 6.91901 13.5417V15.9541C2.30578 15.5719 -0.000559485 12.8604 1.01805e-07 7.81966C1.01805e-07 2.86676 2.30634 0.267482 6.91901 0.0218231V2.25541C4.35946 2.35334 2.99043 3.75231 2.81192 6.45231H6.92488V8.80257Z" fill="#28335A"/>
</svg>
