<svg width="32" height="32" viewBox="0 0 32 32" fill="none" xmlns="http://www.w3.org/2000/svg">
<path d="M5.00238 30.2412C22.4026 36.4359 31.116 24.2685 31.116 24.2685L31.9058 18.1256C24.1265 34.416 5.00238 30.2412 5.00238 30.2412Z" fill="#428CBF"/>
<path d="M29.8261 2.78101C29.8261 2.78101 32.1327 8.8758 15.3657 15.8745C15.2929 15.9053 10.5725 17.6625 10.4948 17.6928L13.9297 21.5155C13.9297 21.5155 18.6452 19.7632 18.7729 19.7126C20.1034 19.1935 27.8001 16.0613 29.881 12.4205C30.9723 10.5122 31.6444 6.51064 29.8261 2.78101Z" fill="#428CBF"/>
<path d="M9.36277 9.00159C12.9722 6.87443 16.1512 6.12899 19.5793 6.45516C19.5793 6.45516 23.2208 3.011 19.2711 0.517587C19.2711 0.517587 13.2589 -1.96842 5.63252 3.9562C-1.0363 9.13292 -0.0892475 15.8172 0.527323 17.517C1.58844 20.434 3.20509 22.518 7.75229 24.2629C7.75476 24.2629 -2.04008 15.7068 9.36277 9.00159Z" fill="#428CBF"/>
</svg>
