<svg width="82" height="16" viewBox="0 0 82 16" fill="none" xmlns="http://www.w3.org/2000/svg"><path d="M78.376 5.524h3.082c.024 0 .043-.02.043-.045v-3.04c-.001-.743-.247-1.348-.745-1.77C80.3.281 79.611.046 78.692 0a.042.042 0 0 0-.042.043v1.146c0 .023.017.041.038.043.806.056 1.42.317 1.42 1.223h-1.732c-.023 0-.042.02-.042.046V5.48c0 .024.019.044.042.044ZM11.695 7.985H7.956c-.058 0-.095.052-.095.104v2.008c0 .063.047.104.096.104h1.327v1.616c0 1.202-.293 1.847-1.328 1.847-.863 0-1.477-.523-1.477-2.152V6.818c0-1.56.465-2.29 1.494-2.29.928 0 1.306.57 1.306 1.634v.605a.1.1 0 0 0 .096.103h2.299c.058 0 .095-.052.095-.103v-.71c.021-2.525-1.322-3.86-3.753-3.86C5.584 2.197 4 3.642 4 6.68v5.022c0 2.992 1.845 4.293 3.893 4.293 2.292 0 3.892-.904 3.892-4.247V8.083a.1.1 0 0 0-.09-.103v.005Zm7.155 5.35h-3.594V2.551c0-.063-.047-.104-.095-.104h-2.262c-.059 0-.095.052-.095.104v13.1c0 .064.047.104.095.104h5.946c.058 0 .096-.051.096-.103v-2.21a.099.099 0 0 0-.096-.103h.005v-.006Zm33.776-6.621c0-3.02 1.55-4.494 3.924-4.494 2.341 0 3.914 1.479 3.903 4.494V11.5c0 3.06-1.455 4.47-3.903 4.47s-3.924-1.381-3.924-4.47V6.714Zm3.924 6.961c.992 0 1.402-.725 1.402-2.266V6.823c0-1.542-.4-2.29-1.402-2.29-1.003 0-1.403.777-1.403 2.29v4.586c0 1.548.411 2.266 1.403 2.266ZM65.333 2.22c-2.373 0-3.925 1.473-3.925 4.494V11.5c0 3.09 1.477 4.47 3.925 4.47 2.448 0 3.903-1.41 3.903-4.47V6.714c.011-3.015-1.562-4.494-3.903-4.494Zm1.402 9.19c0 1.541-.41 2.266-1.402 2.266s-1.402-.72-1.402-2.267V6.824c0-1.513.4-2.29 1.402-2.29 1.002 0 1.402.747 1.402 2.29v4.585ZM44.34 2.444h3.39v.012c2.294 0 4.022 1.26 4.022 4.367v4.563c0 3.078-1.686 4.367-4.048 4.367H44.34a.1.1 0 0 1-.097-.104V2.559c0-.057.038-.115.097-.115Zm3.258 10.886c1.023 0 1.664-.702 1.664-2.342l.005.006V6.996c0-1.658-.672-2.325-1.691-2.325h-.933v8.66h.955ZM31.974 2.197h-.037c-2.336 0-3.567 1.439-3.567 3.596 0 2.246 1.45 3.292 2.647 4.154l.232.167.277.202h.001v.001c.846.612 1.498 1.083 1.498 2.121 0 .87-.533 1.215-1.152 1.232-.683.017-1.178-.547-1.178-1.255V11.27a.13.13 0 0 0-.129-.131H28.38c-.075 0-.128.056-.128.132v1.161c0 2.296 1.29 3.568 3.563 3.568 2.27 0 3.647-1.3 3.647-3.585 0-2.378-1.409-3.406-2.636-4.302l-.041-.03a28.867 28.867 0 0 0-.405-.29c-.84-.598-1.622-1.153-1.622-2.017 0-.857.544-1.26 1.173-1.26.678 0 1.158.524 1.158 1.214v1.012a.13.13 0 0 0 .128.133h2.186c.075 0 .128-.057.128-.132v-.984c.005-2.255-1.354-3.55-3.557-3.562Zm7.853 0h.038c2.202.012 3.556 1.306 3.556 3.562v.984c0 .075-.053.132-.127.132h-2.187a.13.13 0 0 1-.128-.132V5.73c0-.69-.48-1.214-1.157-1.214-.629 0-1.173.403-1.173 1.26 0 .863.781 1.419 1.622 2.016.134.095.27.192.405.29l.04.03c1.228.897 2.636 1.925 2.636 4.303 0 2.284-1.376 3.585-3.647 3.585-2.272 0-3.562-1.271-3.562-3.567V11.27c0-.075.053-.131.127-.131h2.187a.13.13 0 0 1 .128.132v1.144c0 .707.496 1.271 1.178 1.254.619-.017 1.152-.363 1.152-1.231 0-1.04-.652-1.51-1.496-2.121-.09-.066-.185-.133-.279-.204l-.23-.166-.002-.001c-1.197-.862-2.648-1.907-2.648-4.153 0-2.158 1.232-3.596 3.567-3.596Zm37.674 4.346v-1.1c0-1.674-1.29-2.991-2.773-2.991h-4.404c-.053 0-.096.046-.096.103v13.09c0 .057.043.103.096.103h2.154c.058 0 .096-.052.096-.103v-5.45h1.056c.981 0 1.29.392 1.29 1.388v4.05a.1.1 0 0 0 .096.104h2.224a.103.103 0 0 0 .1-.104v-3.976c0-1.358-.346-2.227-1.23-2.583C77 8.683 77.5 7.9 77.5 6.543Zm-2.41.46c0 .546-.406.983-.907.983h-1.637V4.661h1.637c.501 0 .907.438.907.978v1.364ZM22.727 2.452h2.293c.043 0 .085.034.096.086L28.09 15.61a.105.105 0 0 1-.096.144h-2.197c-.037 0-.085-.034-.095-.087l-.47-2.34h-2.74l-.47 2.34a.1.1 0 0 1-.096.087H19.73c-.064 0-.112-.07-.096-.144L22.63 2.538a.095.095 0 0 1 .097-.086Zm1.115 4.154-.907 4.522h1.834l-.906-4.522-.011.063-.01-.063ZM3.124 2.449H.042A.046.046 0 0 0 0 2.494v2.978c0 .025.019.046.042.046h1.732c0 .906-.613 1.166-1.42 1.223a.041.041 0 0 0-.038.043V7.93c0 .024.02.043.043.042.919-.046 1.606-.28 2.064-.67.497-.422.743-1.026.744-1.769v-3.04c0-.025-.019-.046-.042-.046v.001Z" fill="#00A264"/></svg>