<svg width="32" height="32" viewBox="0 0 32 32" fill="none" xmlns="http://www.w3.org/2000/svg"><path fill-rule="evenodd" clip-rule="evenodd" d="M14.06 9.849 1.7 9.846c-.092 0-.169.085-.169.183V21.97c0 .101.077.183.17.183h6.944c0 3.636-2.46 4.68-5.692 4.905a.165.165 0 0 0-.153.172v4.6c0 .095.08.174.17.169 3.684-.185 6.44-1.125 8.276-2.683 1.997-1.694 2.983-4.118 2.985-7.098V10.03c0-.101-.076-.183-.168-.183l-.003.003Zm16.237 12.302-12.36.003c-.092 0-.168-.084-.168-.183V10.03c0-.101.076-.183.169-.183h6.945c0-3.636-2.46-4.679-5.693-4.905a.166.166 0 0 1-.152-.172V.17c0-.095.079-.174.169-.169 3.685.186 6.441 1.125 8.277 2.683 1.996 1.694 2.982 4.118 2.985 7.098v12.19c0 .101-.077.183-.17.183l-.002-.003Z" fill="#00A264"/></svg>