<svg width="121" height="16" viewBox="0 0 121 16" fill="none" xmlns="http://www.w3.org/2000/svg"><path d="M2.593.176H0v15.645h2.593V.176ZM7.154 15.82V.177h2.59l3.285 9.679V.176h2.37v15.645h-2.458L9.521 5.655V15.82H7.154ZM38.286 2.458H35.67v13.363h-2.593V2.458h-2.613V.176h7.82v2.282Zm9.455 13.366-1.99-6.237h-1.298v6.237h-2.59V.176h4.045c2.368 0 3.933.94 3.933 3.307V6.28c0 1.497-.626 2.437-1.698 2.905l2.235 6.639h-2.637Zm-3.288-8.472h1.364c.85 0 1.43-.314 1.43-1.43V3.888c0-1.118-.58-1.43-1.43-1.43h-1.364v4.894Zm17.48 5.341c0 2.414-1.521 3.307-3.891 3.307h-.088c-2.37 0-3.889-.87-3.889-3.307V.176h2.594v12.126c0 1.119.49 1.43 1.339 1.43s1.342-.311 1.342-1.43V.176h2.593v12.517Zm12.247 0c0 2.414-1.566 3.307-3.933 3.307h-.046c-2.368 0-3.933-.87-3.933-3.307V3.307C66.268.98 67.833 0 70.201 0h.046c2.368 0 3.933.981 3.933 3.307v1.81h-2.593V3.71c0-1.102-.538-1.43-1.365-1.43-.826 0-1.36.333-1.36 1.43v8.582c0 1.102.534 1.43 1.36 1.43.827 0 1.365-.336 1.365-1.43v-1.786h2.593v2.188ZM85.31 2.458h-2.615v13.363h-2.593V2.458h-2.615V.176h7.823v2.282Zm11.398 10.235c0 2.414-1.52 3.307-3.888 3.307h-.091c-2.367 0-3.888-.87-3.888-3.307V.176h2.593v12.126c0 1.119.49 1.43 1.339 1.43s1.342-.311 1.342-1.43V.176h2.593v12.517Zm10.304 3.131-1.992-6.237h-1.296v6.237h-2.59V.176h4.046c2.367 0 3.932.94 3.932 3.307V6.28c0 1.497-.626 2.437-1.7 2.905l2.237 6.639h-2.637Zm-3.288-8.472h1.365c.848 0 1.43-.314 1.43-1.43V3.888c0-1.118-.582-1.43-1.43-1.43h-1.365v4.894ZM24.741 4.715v-1.14c0-.985-.55-1.34-1.317-1.34-.766 0-1.32.355-1.32 1.34v1.071c0 .805.276 1.163 1.006 1.588l1.832 1.027c1.5.852 2.392 1.544 2.392 3.22v2.245c0 2.414-1.496 3.263-3.858 3.263h-.044c-2.37 0-3.858-.827-3.858-3.263v-1.653h2.546v1.32c0 .959.552 1.378 1.343 1.378.79 0 1.339-.425 1.339-1.378v-1.24c0-.805-.245-1.207-1.028-1.635l-1.81-1.027c-1.519-.871-2.39-1.585-2.39-3.216V3.216C19.574.893 21.272 0 23.432 0h.017c2.144 0 3.844.893 3.844 3.216v1.5h-2.552Zm88.706 11.098V.176h6.859v2.28h-4.269v4.287h3.574v2.28h-3.574v4.51h4.335v2.28h-6.925Z" fill="#287A9F"/></svg>